<svg width="623" height="412" viewBox="0 0 623 412" fill="none" xmlns="http://www.w3.org/2000/svg">
<path d="M174.825 102.336H183.177V105H171.513V89.16H174.825V102.336ZM190.948 105.24C189.684 105.24 188.58 104.992 187.636 104.496C186.708 104 185.988 103.288 185.476 102.36C184.964 101.432 184.708 100.312 184.708 99C184.708 97.688 184.964 96.568 185.476 95.64C185.988 94.712 186.7 94 187.612 93.504C188.54 93.008 189.596 92.76 190.78 92.76C191.996 92.76 193.028 93.008 193.876 93.504C194.724 93.984 195.372 94.648 195.82 95.496C196.268 96.328 196.492 97.28 196.492 98.352C196.492 98.672 196.484 98.976 196.468 99.264C196.452 99.552 196.428 99.808 196.396 100.032H186.82V97.752H194.956L193.372 98.328C193.372 97.32 193.14 96.544 192.676 96C192.228 95.456 191.588 95.184 190.756 95.184C190.148 95.184 189.62 95.328 189.172 95.616C188.74 95.904 188.412 96.336 188.188 96.912C187.964 97.472 187.852 98.184 187.852 99.048C187.852 99.896 187.972 100.6 188.212 101.16C188.468 101.704 188.82 102.112 189.268 102.384C189.732 102.656 190.284 102.792 190.924 102.792C191.628 102.792 192.196 102.656 192.628 102.384C193.06 102.112 193.396 101.736 193.636 101.256L196.252 102.264C195.996 102.888 195.604 103.424 195.076 103.872C194.564 104.32 193.948 104.664 193.228 104.904C192.524 105.128 191.764 105.24 190.948 105.24ZM213.671 105.24C212.935 105.24 212.263 105.088 211.655 104.784C211.063 104.464 210.567 104.032 210.167 103.488C209.783 102.928 209.519 102.304 209.375 101.616L209.711 101.184L209.519 105H206.615V87.744H209.903V96.384L209.591 95.88C209.847 94.984 210.335 94.24 211.055 93.648C211.775 93.056 212.679 92.76 213.767 92.76C214.711 92.76 215.567 93.008 216.335 93.504C217.103 94 217.703 94.712 218.135 95.64C218.583 96.568 218.807 97.696 218.807 99.024C218.807 100.32 218.583 101.432 218.135 102.36C217.703 103.288 217.095 104 216.311 104.496C215.543 104.992 214.663 105.24 213.671 105.24ZM212.687 102.72C213.567 102.72 214.255 102.408 214.751 101.784C215.263 101.144 215.519 100.216 215.519 99C215.519 97.784 215.271 96.864 214.775 96.24C214.279 95.6 213.591 95.28 212.711 95.28C212.135 95.28 211.639 95.432 211.223 95.736C210.807 96.04 210.479 96.472 210.239 97.032C210.015 97.592 209.903 98.256 209.903 99.024C209.903 99.808 210.015 100.48 210.239 101.04C210.479 101.584 210.807 102 211.223 102.288C211.655 102.576 212.143 102.72 212.687 102.72ZM225.838 105.24C225.038 105.24 224.318 105.096 223.678 104.808C223.038 104.52 222.526 104.064 222.142 103.44C221.774 102.8 221.59 101.976 221.59 100.968V93H224.878V100.176C224.878 101.104 225.07 101.752 225.454 102.12C225.838 102.472 226.39 102.648 227.11 102.648C227.446 102.648 227.774 102.592 228.094 102.48C228.414 102.352 228.694 102.16 228.934 101.904C229.19 101.648 229.39 101.32 229.534 100.92C229.678 100.504 229.75 100.016 229.75 99.456V93H233.038V105H230.11L229.99 102.912C229.59 103.712 229.038 104.304 228.334 104.688C227.646 105.056 226.814 105.24 225.838 105.24ZM241.298 105.24C240.082 105.24 238.97 105.024 237.962 104.592C236.97 104.16 236.162 103.552 235.538 102.768L237.434 100.848C237.818 101.424 238.33 101.896 238.97 102.264C239.61 102.632 240.37 102.816 241.25 102.816C241.874 102.816 242.37 102.728 242.738 102.552C243.122 102.36 243.314 102.064 243.314 101.664C243.314 101.408 243.226 101.192 243.05 101.016C242.874 100.824 242.522 100.672 241.994 100.56L239.882 100.128C238.49 99.84 237.498 99.408 236.906 98.832C236.33 98.24 236.042 97.48 236.042 96.552C236.042 95.896 236.234 95.28 236.618 94.704C237.018 94.128 237.61 93.664 238.394 93.312C239.178 92.944 240.154 92.76 241.322 92.76C242.522 92.76 243.562 92.952 244.442 93.336C245.338 93.704 246.042 94.256 246.554 94.992L244.586 96.912C244.234 96.352 243.77 95.928 243.194 95.64C242.634 95.336 242.042 95.184 241.418 95.184C240.97 95.184 240.586 95.232 240.266 95.328C239.946 95.424 239.706 95.56 239.546 95.736C239.386 95.896 239.306 96.104 239.306 96.36C239.306 96.616 239.418 96.84 239.642 97.032C239.866 97.208 240.274 97.36 240.866 97.488L243.314 97.992C244.498 98.232 245.346 98.64 245.858 99.216C246.37 99.776 246.626 100.456 246.626 101.256C246.626 102.024 246.418 102.712 246.002 103.32C245.602 103.912 245.002 104.384 244.202 104.736C243.418 105.072 242.45 105.24 241.298 105.24ZM250.904 91.272C250.216 91.272 249.704 91.128 249.368 90.84C249.032 90.536 248.864 90.096 248.864 89.52C248.864 88.928 249.032 88.488 249.368 88.2C249.704 87.896 250.216 87.744 250.904 87.744C251.592 87.744 252.104 87.896 252.44 88.2C252.776 88.488 252.944 88.928 252.944 89.52C252.944 90.096 252.776 90.536 252.44 90.84C252.104 91.128 251.592 91.272 250.904 91.272ZM252.536 93V105H249.248V93H252.536ZM256.021 105V93H258.973L259.165 96.6L258.757 96.216C258.949 95.432 259.253 94.784 259.669 94.272C260.085 93.76 260.589 93.384 261.181 93.144C261.789 92.888 262.453 92.76 263.173 92.76C264.005 92.76 264.741 92.92 265.381 93.24C266.037 93.56 266.549 94.048 266.917 94.704C267.301 95.344 267.493 96.152 267.493 97.128V105H264.205V98.064C264.205 97.04 264.005 96.336 263.605 95.952C263.205 95.552 262.685 95.352 262.045 95.352C261.597 95.352 261.157 95.464 260.725 95.688C260.309 95.896 259.965 96.24 259.693 96.72C259.437 97.2 259.309 97.84 259.309 98.64V105H256.021ZM276.448 105.24C275.184 105.24 274.08 104.992 273.136 104.496C272.208 104 271.488 103.288 270.976 102.36C270.464 101.432 270.208 100.312 270.208 99C270.208 97.688 270.464 96.568 270.976 95.64C271.488 94.712 272.2 94 273.112 93.504C274.04 93.008 275.096 92.76 276.28 92.76C277.496 92.76 278.528 93.008 279.376 93.504C280.224 93.984 280.872 94.648 281.32 95.496C281.768 96.328 281.992 97.28 281.992 98.352C281.992 98.672 281.984 98.976 281.968 99.264C281.952 99.552 281.928 99.808 281.896 100.032H272.32V97.752H280.456L278.872 98.328C278.872 97.32 278.64 96.544 278.176 96C277.728 95.456 277.088 95.184 276.256 95.184C275.648 95.184 275.12 95.328 274.672 95.616C274.24 95.904 273.912 96.336 273.688 96.912C273.464 97.472 273.352 98.184 273.352 99.048C273.352 99.896 273.472 100.6 273.712 101.16C273.968 101.704 274.32 102.112 274.768 102.384C275.232 102.656 275.784 102.792 276.424 102.792C277.128 102.792 277.696 102.656 278.128 102.384C278.56 102.112 278.896 101.736 279.136 101.256L281.752 102.264C281.496 102.888 281.104 103.424 280.576 103.872C280.064 104.32 279.448 104.664 278.728 104.904C278.024 105.128 277.264 105.24 276.448 105.24ZM289.579 105.24C288.363 105.24 287.251 105.024 286.243 104.592C285.251 104.16 284.443 103.552 283.819 102.768L285.715 100.848C286.099 101.424 286.611 101.896 287.251 102.264C287.891 102.632 288.651 102.816 289.531 102.816C290.155 102.816 290.651 102.728 291.019 102.552C291.403 102.36 291.595 102.064 291.595 101.664C291.595 101.408 291.507 101.192 291.331 101.016C291.155 100.824 290.803 100.672 290.275 100.56L288.163 100.128C286.771 99.84 285.779 99.408 285.187 98.832C284.611 98.24 284.323 97.48 284.323 96.552C284.323 95.896 284.515 95.28 284.899 94.704C285.299 94.128 285.891 93.664 286.675 93.312C287.459 92.944 288.435 92.76 289.603 92.76C290.803 92.76 291.843 92.952 292.723 93.336C293.619 93.704 294.323 94.256 294.835 94.992L292.867 96.912C292.515 96.352 292.051 95.928 291.475 95.64C290.915 95.336 290.323 95.184 289.699 95.184C289.251 95.184 288.867 95.232 288.547 95.328C288.227 95.424 287.987 95.56 287.827 95.736C287.667 95.896 287.587 96.104 287.587 96.36C287.587 96.616 287.699 96.84 287.923 97.032C288.147 97.208 288.555 97.36 289.147 97.488L291.595 97.992C292.779 98.232 293.627 98.64 294.139 99.216C294.651 99.776 294.907 100.456 294.907 101.256C294.907 102.024 294.699 102.712 294.283 103.32C293.883 103.912 293.283 104.384 292.483 104.736C291.699 105.072 290.731 105.24 289.579 105.24ZM302.329 105.24C301.113 105.24 300.001 105.024 298.993 104.592C298.001 104.16 297.193 103.552 296.569 102.768L298.465 100.848C298.849 101.424 299.361 101.896 300.001 102.264C300.641 102.632 301.401 102.816 302.281 102.816C302.905 102.816 303.401 102.728 303.769 102.552C304.153 102.36 304.345 102.064 304.345 101.664C304.345 101.408 304.257 101.192 304.081 101.016C303.905 100.824 303.553 100.672 303.025 100.56L300.913 100.128C299.521 99.84 298.529 99.408 297.937 98.832C297.361 98.24 297.073 97.48 297.073 96.552C297.073 95.896 297.265 95.28 297.649 94.704C298.049 94.128 298.641 93.664 299.425 93.312C300.209 92.944 301.185 92.76 302.353 92.76C303.553 92.76 304.593 92.952 305.473 93.336C306.369 93.704 307.073 94.256 307.585 94.992L305.617 96.912C305.265 96.352 304.801 95.928 304.225 95.64C303.665 95.336 303.073 95.184 302.449 95.184C302.001 95.184 301.617 95.232 301.297 95.328C300.977 95.424 300.737 95.56 300.577 95.736C300.417 95.896 300.337 96.104 300.337 96.36C300.337 96.616 300.449 96.84 300.673 97.032C300.897 97.208 301.305 97.36 301.897 97.488L304.345 97.992C305.529 98.232 306.377 98.64 306.889 99.216C307.401 99.776 307.657 100.456 307.657 101.256C307.657 102.024 307.449 102.712 307.033 103.32C306.633 103.912 306.033 104.384 305.233 104.736C304.449 105.072 303.481 105.24 302.329 105.24Z" fill="url(#paint0_linear_116_188)"/>
<path d="M52.501 277.336H60.853V280H49.189V264.16H52.501V277.336ZM70.1071 272.344C70.1071 271.656 69.9071 271.12 69.5071 270.736C69.1231 270.352 68.6111 270.16 67.9711 270.16C67.3791 270.16 66.8591 270.312 66.4111 270.616C65.9631 270.92 65.6351 271.424 65.4271 272.128L62.6191 271.264C62.8911 270.208 63.4831 269.36 64.3951 268.72C65.3231 268.08 66.5631 267.76 68.1151 267.76C69.1711 267.76 70.0911 267.928 70.8751 268.264C71.6591 268.584 72.2671 269.072 72.6991 269.728C73.1471 270.384 73.3711 271.208 73.3711 272.2V277.072C73.3711 277.68 73.6591 277.984 74.2351 277.984C74.5071 277.984 74.7631 277.944 75.0031 277.864L74.8111 279.904C74.3951 280.112 73.8751 280.216 73.2511 280.216C72.6911 280.216 72.1871 280.12 71.7391 279.928C71.2911 279.736 70.9391 279.448 70.6831 279.064C70.4271 278.664 70.2991 278.168 70.2991 277.576V277.48L70.8751 277.384C70.7791 277.992 70.5151 278.512 70.0831 278.944C69.6511 279.36 69.1231 279.68 68.4991 279.904C67.8911 280.128 67.2591 280.24 66.6031 280.24C65.7871 280.24 65.0831 280.12 64.4911 279.88C63.8991 279.624 63.4431 279.256 63.1231 278.776C62.8031 278.296 62.6431 277.704 62.6431 277C62.6431 276.104 62.9311 275.376 63.5071 274.816C64.0831 274.24 64.9071 273.848 65.9791 273.64L70.4911 272.728L70.4671 274.768L67.5871 275.344C67.0431 275.456 66.6271 275.608 66.3391 275.8C66.0671 275.976 65.9311 276.272 65.9311 276.688C65.9311 277.088 66.0751 277.392 66.3631 277.6C66.6671 277.808 67.0271 277.912 67.4431 277.912C67.7791 277.912 68.1071 277.872 68.4271 277.792C68.7471 277.712 69.0351 277.584 69.2911 277.408C69.5471 277.232 69.7471 276.992 69.8911 276.688C70.0351 276.384 70.1071 276.016 70.1071 275.584V272.344ZM88.5687 280.24C87.5767 280.24 86.6887 279.992 85.9047 279.496C85.1367 279 84.5287 278.288 84.0807 277.36C83.6487 276.432 83.4327 275.32 83.4327 274.024C83.4327 272.696 83.6647 271.568 84.1287 270.64C84.5927 269.696 85.2167 268.984 86.0007 268.504C86.8007 268.008 87.6967 267.76 88.6887 267.76C89.7447 267.76 90.6167 268.064 91.3047 268.672C91.9927 269.28 92.4407 270.064 92.6487 271.024L92.3367 271.408V262.744H95.6247V280H92.6727L92.4567 276.352L92.8647 276.544C92.7527 277.296 92.4967 277.952 92.0967 278.512C91.6967 279.056 91.1927 279.48 90.5847 279.784C89.9767 280.088 89.3047 280.24 88.5687 280.24ZM89.5287 277.72C90.1047 277.72 90.6007 277.576 91.0167 277.288C91.4327 276.984 91.7527 276.544 91.9767 275.968C92.2167 275.392 92.3367 274.704 92.3367 273.904C92.3367 273.136 92.2247 272.488 92.0007 271.96C91.7767 271.416 91.4567 271 91.0407 270.712C90.6247 270.424 90.1367 270.28 89.5767 270.28C88.6807 270.28 87.9767 270.6 87.4647 271.24C86.9687 271.864 86.7207 272.784 86.7207 274C86.7207 275.216 86.9687 276.144 87.4647 276.784C87.9607 277.408 88.6487 277.72 89.5287 277.72ZM105.92 272.344C105.92 271.656 105.72 271.12 105.32 270.736C104.936 270.352 104.424 270.16 103.784 270.16C103.192 270.16 102.672 270.312 102.224 270.616C101.776 270.92 101.448 271.424 101.24 272.128L98.4316 271.264C98.7036 270.208 99.2956 269.36 100.208 268.72C101.136 268.08 102.376 267.76 103.928 267.76C104.984 267.76 105.904 267.928 106.688 268.264C107.472 268.584 108.08 269.072 108.512 269.728C108.96 270.384 109.184 271.208 109.184 272.2V277.072C109.184 277.68 109.472 277.984 110.048 277.984C110.32 277.984 110.576 277.944 110.816 277.864L110.624 279.904C110.208 280.112 109.688 280.216 109.064 280.216C108.504 280.216 108 280.12 107.552 279.928C107.104 279.736 106.752 279.448 106.496 279.064C106.24 278.664 106.112 278.168 106.112 277.576V277.48L106.688 277.384C106.592 277.992 106.328 278.512 105.896 278.944C105.464 279.36 104.936 279.68 104.312 279.904C103.704 280.128 103.072 280.24 102.416 280.24C101.6 280.24 100.896 280.12 100.304 279.88C99.7116 279.624 99.2556 279.256 98.9356 278.776C98.6156 278.296 98.4556 277.704 98.4556 277C98.4556 276.104 98.7436 275.376 99.3196 274.816C99.8956 274.24 100.72 273.848 101.792 273.64L106.304 272.728L106.28 274.768L103.4 275.344C102.856 275.456 102.44 275.608 102.152 275.8C101.88 275.976 101.744 276.272 101.744 276.688C101.744 277.088 101.888 277.392 102.176 277.6C102.48 277.808 102.84 277.912 103.256 277.912C103.592 277.912 103.92 277.872 104.24 277.792C104.56 277.712 104.848 277.584 105.104 277.408C105.36 277.232 105.56 276.992 105.704 276.688C105.848 276.384 105.92 276.016 105.92 275.584V272.344ZM116.64 264.328V276.088C116.64 276.664 116.784 277.088 117.072 277.36C117.376 277.616 117.784 277.744 118.296 277.744C118.696 277.744 119.048 277.688 119.352 277.576C119.656 277.448 119.928 277.28 120.168 277.072L120.696 279.256C120.312 279.56 119.832 279.8 119.256 279.976C118.68 280.152 118.072 280.24 117.432 280.24C116.632 280.24 115.92 280.12 115.296 279.88C114.688 279.64 114.208 279.256 113.856 278.728C113.52 278.2 113.352 277.496 113.352 276.616V265.24L116.64 264.328ZM120.48 268V270.448H111.144V268H120.48ZM129.662 272.344C129.662 271.656 129.462 271.12 129.062 270.736C128.678 270.352 128.166 270.16 127.526 270.16C126.934 270.16 126.414 270.312 125.966 270.616C125.518 270.92 125.19 271.424 124.982 272.128L122.174 271.264C122.446 270.208 123.038 269.36 123.95 268.72C124.878 268.08 126.118 267.76 127.67 267.76C128.726 267.76 129.646 267.928 130.43 268.264C131.214 268.584 131.822 269.072 132.254 269.728C132.702 270.384 132.926 271.208 132.926 272.2V277.072C132.926 277.68 133.214 277.984 133.79 277.984C134.062 277.984 134.318 277.944 134.558 277.864L134.366 279.904C133.95 280.112 133.43 280.216 132.806 280.216C132.246 280.216 131.742 280.12 131.294 279.928C130.846 279.736 130.494 279.448 130.238 279.064C129.982 278.664 129.854 278.168 129.854 277.576V277.48L130.43 277.384C130.334 277.992 130.07 278.512 129.638 278.944C129.206 279.36 128.678 279.68 128.054 279.904C127.446 280.128 126.814 280.24 126.158 280.24C125.342 280.24 124.638 280.12 124.046 279.88C123.454 279.624 122.998 279.256 122.678 278.776C122.358 278.296 122.198 277.704 122.198 277C122.198 276.104 122.486 275.376 123.062 274.816C123.638 274.24 124.462 273.848 125.534 273.64L130.046 272.728L130.022 274.768L127.142 275.344C126.598 275.456 126.182 275.608 125.894 275.8C125.622 275.976 125.486 276.272 125.486 276.688C125.486 277.088 125.63 277.392 125.918 277.6C126.222 277.808 126.582 277.912 126.998 277.912C127.334 277.912 127.662 277.872 127.982 277.792C128.302 277.712 128.59 277.584 128.846 277.408C129.102 277.232 129.302 276.992 129.446 276.688C129.59 276.384 129.662 276.016 129.662 275.584V272.344Z" fill="url(#paint1_linear_116_188)"/>
<path d="M359.837 251.336H368.189V254H356.525V238.16H359.837V251.336ZM375.96 254.24C374.696 254.24 373.592 253.992 372.648 253.496C371.72 253 371 252.288 370.488 251.36C369.976 250.432 369.72 249.312 369.72 248C369.72 246.688 369.976 245.568 370.488 244.64C371 243.712 371.712 243 372.624 242.504C373.552 242.008 374.608 241.76 375.792 241.76C377.008 241.76 378.04 242.008 378.888 242.504C379.736 242.984 380.384 243.648 380.832 244.496C381.28 245.328 381.504 246.28 381.504 247.352C381.504 247.672 381.496 247.976 381.48 248.264C381.464 248.552 381.44 248.808 381.408 249.032H371.832V246.752H379.968L378.384 247.328C378.384 246.32 378.152 245.544 377.688 245C377.24 244.456 376.6 244.184 375.768 244.184C375.16 244.184 374.632 244.328 374.184 244.616C373.752 244.904 373.424 245.336 373.2 245.912C372.976 246.472 372.864 247.184 372.864 248.048C372.864 248.896 372.984 249.6 373.224 250.16C373.48 250.704 373.832 251.112 374.28 251.384C374.744 251.656 375.296 251.792 375.936 251.792C376.64 251.792 377.208 251.656 377.64 251.384C378.072 251.112 378.408 250.736 378.648 250.256L381.264 251.264C381.008 251.888 380.616 252.424 380.088 252.872C379.576 253.32 378.96 253.664 378.24 253.904C377.536 254.128 376.776 254.24 375.96 254.24ZM396.162 254.24C395.17 254.24 394.282 253.992 393.498 253.496C392.73 253 392.122 252.288 391.674 251.36C391.242 250.432 391.026 249.32 391.026 248.024C391.026 246.696 391.258 245.568 391.722 244.64C392.186 243.696 392.81 242.984 393.594 242.504C394.394 242.008 395.29 241.76 396.282 241.76C397.338 241.76 398.21 242.064 398.898 242.672C399.586 243.28 400.034 244.064 400.242 245.024L399.93 245.408V236.744H403.218V254H400.266L400.05 250.352L400.458 250.544C400.346 251.296 400.09 251.952 399.69 252.512C399.29 253.056 398.786 253.48 398.178 253.784C397.57 254.088 396.898 254.24 396.162 254.24ZM397.122 251.72C397.698 251.72 398.194 251.576 398.61 251.288C399.026 250.984 399.346 250.544 399.57 249.968C399.81 249.392 399.93 248.704 399.93 247.904C399.93 247.136 399.818 246.488 399.594 245.96C399.37 245.416 399.05 245 398.634 244.712C398.218 244.424 397.73 244.28 397.17 244.28C396.274 244.28 395.57 244.6 395.058 245.24C394.562 245.864 394.314 246.784 394.314 248C394.314 249.216 394.562 250.144 395.058 250.784C395.554 251.408 396.242 251.72 397.122 251.72ZM408.329 240.272C407.641 240.272 407.129 240.128 406.793 239.84C406.457 239.536 406.289 239.096 406.289 238.52C406.289 237.928 406.457 237.488 406.793 237.2C407.129 236.896 407.641 236.744 408.329 236.744C409.017 236.744 409.529 236.896 409.865 237.2C410.201 237.488 410.369 237.928 410.369 238.52C410.369 239.096 410.201 239.536 409.865 239.84C409.529 240.128 409.017 240.272 408.329 240.272ZM409.961 242V254H406.673V242H409.961ZM424.511 239.144L424.895 241.496C424.831 241.496 424.759 241.496 424.679 241.496C424.615 241.48 424.543 241.472 424.463 241.472C423.727 241.472 423.175 241.64 422.807 241.976C422.439 242.296 422.255 242.744 422.255 243.32L420.911 242.768C420.911 242.128 421.039 241.536 421.295 240.992C421.551 240.432 421.927 239.984 422.423 239.648C422.935 239.312 423.543 239.144 424.247 239.144C424.279 239.144 424.319 239.144 424.367 239.144C424.415 239.144 424.463 239.144 424.511 239.144ZM420.575 251.744C421.871 251.744 422.871 252.024 423.575 252.584C424.279 253.144 424.631 253.928 424.631 254.936C424.631 255.848 424.367 256.616 423.839 257.24C423.311 257.88 422.567 258.36 421.607 258.68C420.663 259 419.567 259.16 418.319 259.16C416.255 259.16 414.743 258.872 413.783 258.296C412.839 257.72 412.367 256.968 412.367 256.04C412.367 255.384 412.615 254.832 413.111 254.384C413.623 253.936 414.463 253.688 415.631 253.64L415.511 254.024C414.679 253.88 414.039 253.608 413.591 253.208C413.159 252.792 412.943 252.224 412.943 251.504C412.943 250.768 413.223 250.168 413.783 249.704C414.359 249.224 415.135 248.944 416.111 248.864L417.551 249.536H417.215C416.527 249.584 416.039 249.728 415.751 249.968C415.479 250.192 415.343 250.448 415.343 250.736C415.343 251.072 415.471 251.328 415.727 251.504C415.999 251.664 416.383 251.744 416.879 251.744H420.575ZM418.343 256.904C419.175 256.904 419.855 256.832 420.383 256.688C420.927 256.544 421.327 256.36 421.583 256.136C421.855 255.912 421.991 255.664 421.991 255.392C421.991 255.088 421.871 254.84 421.631 254.648C421.391 254.472 420.959 254.384 420.335 254.384H416.279C415.895 254.384 415.575 254.48 415.319 254.672C415.079 254.864 414.959 255.128 414.959 255.464C414.959 255.912 415.255 256.264 415.847 256.52C416.455 256.776 417.287 256.904 418.343 256.904ZM418.367 241.76C419.487 241.76 420.455 241.928 421.271 242.264C422.103 242.584 422.735 243.048 423.167 243.656C423.615 244.264 423.839 244.992 423.839 245.84C423.839 246.672 423.615 247.392 423.167 248C422.735 248.608 422.103 249.08 421.271 249.416C420.455 249.736 419.487 249.896 418.367 249.896C416.591 249.896 415.231 249.536 414.287 248.816C413.359 248.08 412.895 247.088 412.895 245.84C412.895 244.992 413.111 244.264 413.543 243.656C413.991 243.048 414.623 242.584 415.439 242.264C416.255 241.928 417.231 241.76 418.367 241.76ZM418.367 243.824C417.727 243.824 417.199 244 416.783 244.352C416.367 244.704 416.159 245.192 416.159 245.816C416.159 246.44 416.367 246.936 416.783 247.304C417.199 247.656 417.727 247.832 418.367 247.832C419.007 247.832 419.527 247.656 419.927 247.304C420.343 246.936 420.551 246.44 420.551 245.816C420.551 245.192 420.343 244.704 419.927 244.352C419.527 244 419.007 243.824 418.367 243.824ZM428.275 240.272C427.587 240.272 427.075 240.128 426.739 239.84C426.403 239.536 426.235 239.096 426.235 238.52C426.235 237.928 426.403 237.488 426.739 237.2C427.075 236.896 427.587 236.744 428.275 236.744C428.963 236.744 429.475 236.896 429.811 237.2C430.147 237.488 430.315 237.928 430.315 238.52C430.315 239.096 430.147 239.536 429.811 239.84C429.475 240.128 428.963 240.272 428.275 240.272ZM429.907 242V254H426.619V242H429.907ZM437.64 238.328V250.088C437.64 250.664 437.784 251.088 438.072 251.36C438.376 251.616 438.784 251.744 439.296 251.744C439.696 251.744 440.048 251.688 440.352 251.576C440.656 251.448 440.928 251.28 441.168 251.072L441.696 253.256C441.312 253.56 440.832 253.8 440.256 253.976C439.68 254.152 439.072 254.24 438.432 254.24C437.632 254.24 436.92 254.12 436.296 253.88C435.688 253.64 435.208 253.256 434.856 252.728C434.52 252.2 434.352 251.496 434.352 250.616V239.24L437.64 238.328ZM441.48 242V244.448H432.144V242H441.48ZM450.662 246.344C450.662 245.656 450.462 245.12 450.062 244.736C449.678 244.352 449.166 244.16 448.526 244.16C447.934 244.16 447.414 244.312 446.966 244.616C446.518 244.92 446.19 245.424 445.982 246.128L443.174 245.264C443.446 244.208 444.038 243.36 444.95 242.72C445.878 242.08 447.118 241.76 448.67 241.76C449.726 241.76 450.646 241.928 451.43 242.264C452.214 242.584 452.822 243.072 453.254 243.728C453.702 244.384 453.926 245.208 453.926 246.2V251.072C453.926 251.68 454.214 251.984 454.79 251.984C455.062 251.984 455.318 251.944 455.558 251.864L455.366 253.904C454.95 254.112 454.43 254.216 453.806 254.216C453.246 254.216 452.742 254.12 452.294 253.928C451.846 253.736 451.494 253.448 451.238 253.064C450.982 252.664 450.854 252.168 450.854 251.576V251.48L451.43 251.384C451.334 251.992 451.07 252.512 450.638 252.944C450.206 253.36 449.678 253.68 449.054 253.904C448.446 254.128 447.814 254.24 447.158 254.24C446.342 254.24 445.638 254.12 445.046 253.88C444.454 253.624 443.998 253.256 443.678 252.776C443.358 252.296 443.198 251.704 443.198 251C443.198 250.104 443.486 249.376 444.062 248.816C444.638 248.24 445.462 247.848 446.534 247.64L451.046 246.728L451.022 248.768L448.142 249.344C447.598 249.456 447.182 249.608 446.894 249.8C446.622 249.976 446.486 250.272 446.486 250.688C446.486 251.088 446.63 251.392 446.918 251.6C447.222 251.808 447.582 251.912 447.998 251.912C448.334 251.912 448.662 251.872 448.982 251.792C449.302 251.712 449.59 251.584 449.846 251.408C450.102 251.232 450.302 250.992 450.446 250.688C450.59 250.384 450.662 250.016 450.662 249.584V246.344ZM460.843 236.744V250.304C460.843 250.864 460.939 251.256 461.131 251.48C461.323 251.704 461.643 251.816 462.091 251.816C462.363 251.816 462.587 251.8 462.763 251.768C462.939 251.72 463.163 251.656 463.435 251.576L463.147 253.736C462.875 253.896 462.531 254.016 462.115 254.096C461.715 254.192 461.315 254.24 460.915 254.24C459.747 254.24 458.891 253.96 458.347 253.4C457.819 252.824 457.555 251.912 457.555 250.664V236.744H460.843Z" fill="url(#paint2_linear_116_188)"/>
<path d="M174.825 102.336H183.177V105H171.513V89.16H174.825V102.336ZM190.948 105.24C189.684 105.24 188.58 104.992 187.636 104.496C186.708 104 185.988 103.288 185.476 102.36C184.964 101.432 184.708 100.312 184.708 99C184.708 97.688 184.964 96.568 185.476 95.64C185.988 94.712 186.7 94 187.612 93.504C188.54 93.008 189.596 92.76 190.78 92.76C191.996 92.76 193.028 93.008 193.876 93.504C194.724 93.984 195.372 94.648 195.82 95.496C196.268 96.328 196.492 97.28 196.492 98.352C196.492 98.672 196.484 98.976 196.468 99.264C196.452 99.552 196.428 99.808 196.396 100.032H186.82V97.752H194.956L193.372 98.328C193.372 97.32 193.14 96.544 192.676 96C192.228 95.456 191.588 95.184 190.756 95.184C190.148 95.184 189.62 95.328 189.172 95.616C188.74 95.904 188.412 96.336 188.188 96.912C187.964 97.472 187.852 98.184 187.852 99.048C187.852 99.896 187.972 100.6 188.212 101.16C188.468 101.704 188.82 102.112 189.268 102.384C189.732 102.656 190.284 102.792 190.924 102.792C191.628 102.792 192.196 102.656 192.628 102.384C193.06 102.112 193.396 101.736 193.636 101.256L196.252 102.264C195.996 102.888 195.604 103.424 195.076 103.872C194.564 104.32 193.948 104.664 193.228 104.904C192.524 105.128 191.764 105.24 190.948 105.24ZM213.671 105.24C212.935 105.24 212.263 105.088 211.655 104.784C211.063 104.464 210.567 104.032 210.167 103.488C209.783 102.928 209.519 102.304 209.375 101.616L209.711 101.184L209.519 105H206.615V87.744H209.903V96.384L209.591 95.88C209.847 94.984 210.335 94.24 211.055 93.648C211.775 93.056 212.679 92.76 213.767 92.76C214.711 92.76 215.567 93.008 216.335 93.504C217.103 94 217.703 94.712 218.135 95.64C218.583 96.568 218.807 97.696 218.807 99.024C218.807 100.32 218.583 101.432 218.135 102.36C217.703 103.288 217.095 104 216.311 104.496C215.543 104.992 214.663 105.24 213.671 105.24ZM212.687 102.72C213.567 102.72 214.255 102.408 214.751 101.784C215.263 101.144 215.519 100.216 215.519 99C215.519 97.784 215.271 96.864 214.775 96.24C214.279 95.6 213.591 95.28 212.711 95.28C212.135 95.28 211.639 95.432 211.223 95.736C210.807 96.04 210.479 96.472 210.239 97.032C210.015 97.592 209.903 98.256 209.903 99.024C209.903 99.808 210.015 100.48 210.239 101.04C210.479 101.584 210.807 102 211.223 102.288C211.655 102.576 212.143 102.72 212.687 102.72ZM225.838 105.24C225.038 105.24 224.318 105.096 223.678 104.808C223.038 104.52 222.526 104.064 222.142 103.44C221.774 102.8 221.59 101.976 221.59 100.968V93H224.878V100.176C224.878 101.104 225.07 101.752 225.454 102.12C225.838 102.472 226.39 102.648 227.11 102.648C227.446 102.648 227.774 102.592 228.094 102.48C228.414 102.352 228.694 102.16 228.934 101.904C229.19 101.648 229.39 101.32 229.534 100.92C229.678 100.504 229.75 100.016 229.75 99.456V93H233.038V105H230.11L229.99 102.912C229.59 103.712 229.038 104.304 228.334 104.688C227.646 105.056 226.814 105.24 225.838 105.24ZM241.298 105.24C240.082 105.24 238.97 105.024 237.962 104.592C236.97 104.16 236.162 103.552 235.538 102.768L237.434 100.848C237.818 101.424 238.33 101.896 238.97 102.264C239.61 102.632 240.37 102.816 241.25 102.816C241.874 102.816 242.37 102.728 242.738 102.552C243.122 102.36 243.314 102.064 243.314 101.664C243.314 101.408 243.226 101.192 243.05 101.016C242.874 100.824 242.522 100.672 241.994 100.56L239.882 100.128C238.49 99.84 237.498 99.408 236.906 98.832C236.33 98.24 236.042 97.48 236.042 96.552C236.042 95.896 236.234 95.28 236.618 94.704C237.018 94.128 237.61 93.664 238.394 93.312C239.178 92.944 240.154 92.76 241.322 92.76C242.522 92.76 243.562 92.952 244.442 93.336C245.338 93.704 246.042 94.256 246.554 94.992L244.586 96.912C244.234 96.352 243.77 95.928 243.194 95.64C242.634 95.336 242.042 95.184 241.418 95.184C240.97 95.184 240.586 95.232 240.266 95.328C239.946 95.424 239.706 95.56 239.546 95.736C239.386 95.896 239.306 96.104 239.306 96.36C239.306 96.616 239.418 96.84 239.642 97.032C239.866 97.208 240.274 97.36 240.866 97.488L243.314 97.992C244.498 98.232 245.346 98.64 245.858 99.216C246.37 99.776 246.626 100.456 246.626 101.256C246.626 102.024 246.418 102.712 246.002 103.32C245.602 103.912 245.002 104.384 244.202 104.736C243.418 105.072 242.45 105.24 241.298 105.24ZM250.904 91.272C250.216 91.272 249.704 91.128 249.368 90.84C249.032 90.536 248.864 90.096 248.864 89.52C248.864 88.928 249.032 88.488 249.368 88.2C249.704 87.896 250.216 87.744 250.904 87.744C251.592 87.744 252.104 87.896 252.44 88.2C252.776 88.488 252.944 88.928 252.944 89.52C252.944 90.096 252.776 90.536 252.44 90.84C252.104 91.128 251.592 91.272 250.904 91.272ZM252.536 93V105H249.248V93H252.536ZM256.021 105V93H258.973L259.165 96.6L258.757 96.216C258.949 95.432 259.253 94.784 259.669 94.272C260.085 93.76 260.589 93.384 261.181 93.144C261.789 92.888 262.453 92.76 263.173 92.76C264.005 92.76 264.741 92.92 265.381 93.24C266.037 93.56 266.549 94.048 266.917 94.704C267.301 95.344 267.493 96.152 267.493 97.128V105H264.205V98.064C264.205 97.04 264.005 96.336 263.605 95.952C263.205 95.552 262.685 95.352 262.045 95.352C261.597 95.352 261.157 95.464 260.725 95.688C260.309 95.896 259.965 96.24 259.693 96.72C259.437 97.2 259.309 97.84 259.309 98.64V105H256.021ZM276.448 105.24C275.184 105.24 274.08 104.992 273.136 104.496C272.208 104 271.488 103.288 270.976 102.36C270.464 101.432 270.208 100.312 270.208 99C270.208 97.688 270.464 96.568 270.976 95.64C271.488 94.712 272.2 94 273.112 93.504C274.04 93.008 275.096 92.76 276.28 92.76C277.496 92.76 278.528 93.008 279.376 93.504C280.224 93.984 280.872 94.648 281.32 95.496C281.768 96.328 281.992 97.28 281.992 98.352C281.992 98.672 281.984 98.976 281.968 99.264C281.952 99.552 281.928 99.808 281.896 100.032H272.32V97.752H280.456L278.872 98.328C278.872 97.32 278.64 96.544 278.176 96C277.728 95.456 277.088 95.184 276.256 95.184C275.648 95.184 275.12 95.328 274.672 95.616C274.24 95.904 273.912 96.336 273.688 96.912C273.464 97.472 273.352 98.184 273.352 99.048C273.352 99.896 273.472 100.6 273.712 101.16C273.968 101.704 274.32 102.112 274.768 102.384C275.232 102.656 275.784 102.792 276.424 102.792C277.128 102.792 277.696 102.656 278.128 102.384C278.56 102.112 278.896 101.736 279.136 101.256L281.752 102.264C281.496 102.888 281.104 103.424 280.576 103.872C280.064 104.32 279.448 104.664 278.728 104.904C278.024 105.128 277.264 105.24 276.448 105.24ZM289.579 105.24C288.363 105.24 287.251 105.024 286.243 104.592C285.251 104.16 284.443 103.552 283.819 102.768L285.715 100.848C286.099 101.424 286.611 101.896 287.251 102.264C287.891 102.632 288.651 102.816 289.531 102.816C290.155 102.816 290.651 102.728 291.019 102.552C291.403 102.36 291.595 102.064 291.595 101.664C291.595 101.408 291.507 101.192 291.331 101.016C291.155 100.824 290.803 100.672 290.275 100.56L288.163 100.128C286.771 99.84 285.779 99.408 285.187 98.832C284.611 98.24 284.323 97.48 284.323 96.552C284.323 95.896 284.515 95.28 284.899 94.704C285.299 94.128 285.891 93.664 286.675 93.312C287.459 92.944 288.435 92.76 289.603 92.76C290.803 92.76 291.843 92.952 292.723 93.336C293.619 93.704 294.323 94.256 294.835 94.992L292.867 96.912C292.515 96.352 292.051 95.928 291.475 95.64C290.915 95.336 290.323 95.184 289.699 95.184C289.251 95.184 288.867 95.232 288.547 95.328C288.227 95.424 287.987 95.56 287.827 95.736C287.667 95.896 287.587 96.104 287.587 96.36C287.587 96.616 287.699 96.84 287.923 97.032C288.147 97.208 288.555 97.36 289.147 97.488L291.595 97.992C292.779 98.232 293.627 98.64 294.139 99.216C294.651 99.776 294.907 100.456 294.907 101.256C294.907 102.024 294.699 102.712 294.283 103.32C293.883 103.912 293.283 104.384 292.483 104.736C291.699 105.072 290.731 105.24 289.579 105.24ZM302.329 105.24C301.113 105.24 300.001 105.024 298.993 104.592C298.001 104.16 297.193 103.552 296.569 102.768L298.465 100.848C298.849 101.424 299.361 101.896 300.001 102.264C300.641 102.632 301.401 102.816 302.281 102.816C302.905 102.816 303.401 102.728 303.769 102.552C304.153 102.36 304.345 102.064 304.345 101.664C304.345 101.408 304.257 101.192 304.081 101.016C303.905 100.824 303.553 100.672 303.025 100.56L300.913 100.128C299.521 99.84 298.529 99.408 297.937 98.832C297.361 98.24 297.073 97.48 297.073 96.552C297.073 95.896 297.265 95.28 297.649 94.704C298.049 94.128 298.641 93.664 299.425 93.312C300.209 92.944 301.185 92.76 302.353 92.76C303.553 92.76 304.593 92.952 305.473 93.336C306.369 93.704 307.073 94.256 307.585 94.992L305.617 96.912C305.265 96.352 304.801 95.928 304.225 95.64C303.665 95.336 303.073 95.184 302.449 95.184C302.001 95.184 301.617 95.232 301.297 95.328C300.977 95.424 300.737 95.56 300.577 95.736C300.417 95.896 300.337 96.104 300.337 96.36C300.337 96.616 300.449 96.84 300.673 97.032C300.897 97.208 301.305 97.36 301.897 97.488L304.345 97.992C305.529 98.232 306.377 98.64 306.889 99.216C307.401 99.776 307.657 100.456 307.657 101.256C307.657 102.024 307.449 102.712 307.033 103.32C306.633 103.912 306.033 104.384 305.233 104.736C304.449 105.072 303.481 105.24 302.329 105.24Z" fill="url(#paint3_linear_116_188)"/>
<path d="M354.767 100.82C354.391 101.224 354.415 101.857 354.82 102.233L361.416 108.356C361.821 108.732 362.453 108.708 362.829 108.303C363.205 107.898 363.181 107.266 362.777 106.89L356.913 101.447L362.356 95.5841C362.732 95.1794 362.708 94.5466 362.303 94.1709C361.898 93.7952 361.266 93.8187 360.89 94.2235L354.767 100.82ZM446.684 188.578C447.003 189.028 447.627 189.135 448.078 188.816L455.425 183.618C455.875 183.299 455.982 182.675 455.663 182.224C455.344 181.773 454.72 181.666 454.269 181.985L447.739 186.606L443.118 180.075C442.799 179.625 442.175 179.518 441.724 179.837C441.273 180.156 441.166 180.78 441.485 181.231L446.684 188.578ZM355.537 102.499C373.335 101.837 399.211 105.349 419.052 117.944C428.955 124.231 437.334 132.767 442.484 144.165C447.633 155.56 449.587 169.893 446.514 187.831L448.486 188.169C451.613 169.907 449.647 155.16 444.307 143.341C438.968 131.524 430.291 122.711 420.123 116.256C399.822 103.368 373.498 99.8296 355.463 100.501L355.537 102.499Z" fill="#D2D2D2"/>
<path d="M7.98326 226.745C8.42834 227.072 9.05423 226.976 9.38122 226.531L14.7099 219.278C15.0369 218.833 14.9412 218.207 14.4961 217.88C14.051 217.553 13.4251 217.649 13.0981 218.094L8.36153 224.541L1.91448 219.804C1.4694 219.477 0.843516 219.573 0.516521 220.018C0.189526 220.463 0.28525 221.089 0.730327 221.416L7.98326 226.745ZM105.726 108.198C106.145 107.839 106.194 107.208 105.835 106.788L99.9824 99.9513C99.6233 99.5317 98.992 99.4827 98.5724 99.8419C98.1529 100.201 98.1039 100.832 98.463 101.252L103.665 107.329L97.5879 112.532C97.1683 112.891 97.1193 113.522 97.4785 113.942C97.8376 114.361 98.4689 114.41 98.8885 114.051L105.726 108.198ZM9.56384 225.788C6.33275 204.661 7.26969 173.475 20.4718 148.519C27.0625 136.06 36.7024 125.165 50.4055 117.822C64.1105 110.477 81.9497 106.648 104.998 108.436L105.153 106.442C81.801 104.63 63.5652 108.5 49.4608 116.059C35.3546 123.618 25.4507 134.83 18.7039 147.584C5.23099 173.052 4.31793 204.716 7.58683 226.09L9.56384 225.788Z" fill="#D2D2D2"/>
<path d="M104.567 332.599C104.069 332.838 103.859 333.435 104.099 333.933L107.996 342.045C108.235 342.543 108.832 342.753 109.33 342.514C109.828 342.275 110.038 341.677 109.799 341.179L106.334 333.968L113.545 330.504C114.043 330.265 114.253 329.668 114.014 329.17C113.775 328.672 113.177 328.462 112.679 328.701L104.567 332.599ZM401.482 310.811C401.377 310.268 400.853 309.913 400.311 310.018L391.474 311.723C390.931 311.828 390.577 312.353 390.681 312.895C390.786 313.437 391.31 313.792 391.853 313.687L399.708 312.171L401.223 320.026C401.328 320.569 401.853 320.923 402.395 320.819C402.937 320.714 403.292 320.19 403.187 319.647L401.482 310.811ZM104.669 334.444C142.488 347.718 202.67 362.522 260.341 363.787C317.94 365.051 373.422 352.813 401.328 311.56L399.672 310.44C372.378 350.787 317.86 363.049 260.384 361.788C202.98 360.528 143.012 345.782 105.331 332.556L104.669 334.444Z" fill="#D2D2D2"/>
<defs>
<linearGradient id="paint0_linear_116_188" x1="178" y1="79" x2="313" y2="105" gradientUnits="userSpaceOnUse">
<stop stop-color="#7CABF0"/>
<stop offset="1" stop-color="#387FE5"/>
</linearGradient>
<linearGradient id="paint1_linear_116_188" x1="30" y1="254" x2="165" y2="280" gradientUnits="userSpaceOnUse">
<stop stop-color="#7CABF0"/>
<stop offset="1" stop-color="#387FE5"/>
</linearGradient>
<linearGradient id="paint2_linear_116_188" x1="348" y1="228" x2="483" y2="254" gradientUnits="userSpaceOnUse">
<stop stop-color="#7CABF0"/>
<stop offset="1" stop-color="#387FE5"/>
</linearGradient>
<linearGradient id="paint3_linear_116_188" x1="178" y1="79" x2="313" y2="105" gradientUnits="userSpaceOnUse">
<stop stop-color="#7CABF0"/>
<stop offset="1" stop-color="#387FE5"/>
</linearGradient>
</defs>
</svg>
