<svg width="86" height="29" viewBox="0 0 86 29" fill="none" xmlns="http://www.w3.org/2000/svg">
<path d="M5.9715 0L0 28.0622H79.2186L85.0393 0H5.9715Z" fill="#060606"/>
<path fill-rule="evenodd" clip-rule="evenodd" d="M10.7323 13.4033H13.783L12.2693 20.3009H17.7618L17.3335 22.3937H8.81689L10.7323 13.4033Z" fill="white"/>
<path fill-rule="evenodd" clip-rule="evenodd" d="M20.031 13.4033H29.0259L28.597 15.3687H22.6008L22.2979 16.9798H27.8918L27.4882 18.8672H21.8703L21.5155 20.4783H27.5389L27.1099 22.3937H18.1157L20.031 13.4033Z" fill="white"/>
<mask id="mask0_163_267" style="mask-type:luminance" maskUnits="userSpaceOnUse" x="0" y="0" width="86" height="29">
<path d="M85.0393 0.000488281H0V28.0627H85.0393V0.000488281Z" fill="white"/>
</mask>
<g mask="url(#mask0_163_267)">
<path fill-rule="evenodd" clip-rule="evenodd" d="M34.1442 20.4281H36.6471C38.3739 20.4281 39.0901 19.1159 39.3878 17.9285C39.6867 16.2621 39.0901 15.4289 37.4822 15.4289H35.2186L34.1442 20.4281ZM32.6553 13.4031H39.1486C41.9517 13.4031 43.0852 14.9532 42.4885 17.9285C41.7119 21.44 39.3878 22.3935 36.8251 22.3935H30.686L32.6553 13.4031Z" fill="white"/>
<path fill-rule="evenodd" clip-rule="evenodd" d="M44.3459 13.4031H47.3258L46.193 18.7637C45.8947 20.1915 46.4926 20.6712 47.8613 20.6712C49.2333 20.6712 50.0067 20.1915 50.305 18.7637L51.4378 13.4031H54.4762L53.227 19.2413C52.6883 21.7429 50.6033 22.6944 47.4434 22.6944C44.2276 22.6944 42.5541 21.7429 43.0928 19.2413L44.3459 13.4031Z" fill="white"/>
<path fill-rule="evenodd" clip-rule="evenodd" d="M14.6133 7.68068C14.6731 7.26538 14.315 7.02498 13.8984 7.02498C13.0061 7.02498 12.6486 7.92058 12.6486 8.75768C12.6486 9.35428 12.9437 9.71108 13.4818 9.71108C14.0161 9.71108 14.315 9.53038 14.4951 8.99158H13.7203L13.8984 8.15908H15.687L15.1514 10.5443H14.4352L14.4951 10.0685H14.4352C14.1974 10.426 13.8984 10.6073 13.1828 10.6073C12.4082 10.6073 11.5132 10.1868 11.5132 8.75768C11.5132 8.39888 11.6334 6.06958 13.9576 6.06958C15.0312 6.06958 15.7448 6.60838 15.687 7.68068H14.6133Z" fill="white"/>
<path fill-rule="evenodd" clip-rule="evenodd" d="M21.042 8.09689H21.9376C22.2944 8.09689 22.6539 7.97599 22.6539 7.50159C22.6539 7.14609 22.3543 7.08689 22.0566 7.08689H21.2234L21.042 8.09689ZM20.2674 6.19849H22.4134C23.1881 6.19849 23.7847 6.37459 23.7847 7.32279C23.7847 7.97599 23.4864 8.39389 22.83 8.51159C23.1296 8.62919 23.2472 8.81049 23.2472 9.22319V10.0538C23.2472 10.1721 23.2472 10.4132 23.3057 10.5295H22.1742C22.1742 10.4132 22.1157 10.3534 22.1157 10.2345C22.1157 10.0538 22.1742 9.81849 22.1742 9.52279C22.1742 9.16409 21.9968 8.92879 21.5802 8.92879H20.8646L20.5078 10.5295H19.375L20.2674 6.19849Z" fill="white"/>
<path fill-rule="evenodd" clip-rule="evenodd" d="M29.5576 9.71132C30.3941 9.71132 30.8126 8.69682 30.8126 8.03912C30.8126 7.38272 30.5734 7.02462 29.9768 7.02462C29.0819 7.02462 28.7231 7.98002 28.7231 8.69682C28.7231 9.23362 28.9597 9.71132 29.5576 9.71132ZM29.9768 6.06982C30.7515 6.06982 31.9454 6.36952 31.9454 7.92082C31.9454 9.47212 31.0492 10.6076 29.4991 10.6076C28.2455 10.6076 27.5884 9.88882 27.5884 8.69682C27.5884 7.26502 28.4846 6.06982 29.9768 6.06982Z" fill="white"/>
<path fill-rule="evenodd" clip-rule="evenodd" d="M39.7017 8.63934C39.4612 9.83004 39.1044 10.6073 37.5557 10.6073C36.4235 10.6073 35.8262 10.0685 35.8262 9.35424C35.8262 8.99684 35.8854 8.76024 35.9478 8.46064L36.4235 6.19824H37.5557L37.0176 8.52114C37.0176 8.69724 36.959 8.93634 36.959 9.17814C36.959 9.47454 37.1976 9.71104 37.5557 9.71104C38.3304 9.71104 38.448 9.11644 38.628 8.40284L39.1044 6.19824H40.2372L39.7017 8.63934Z" fill="white"/>
<path fill-rule="evenodd" clip-rule="evenodd" d="M45.1245 8.21649H45.9538C46.4295 8.21649 46.6686 7.91879 46.6686 7.56199C46.6686 7.14609 46.3716 7.14609 46.0141 7.14609H45.3597L45.1245 8.21649ZM44.4082 6.19849H46.5517C47.3232 6.19849 47.7981 6.73209 47.7981 7.50159C47.7981 8.57129 47.0274 9.10489 45.9538 9.10489H44.9437L44.648 10.5295H43.5146L44.4082 6.19849Z" fill="white"/>
<path fill-rule="evenodd" clip-rule="evenodd" d="M52.1589 6.19849H55.5626L55.3598 7.15449H53.0396L52.9148 7.85839H55.0816L54.9055 8.74289H52.7373L52.5606 9.52279H54.9055L54.704 10.5295H51.2529L52.1589 6.19849Z" fill="white"/>
<path fill-rule="evenodd" clip-rule="evenodd" d="M63.52 22.3937H66.5713L67.2745 18.9419H72.4641L72.8924 16.9792H67.7035L68.057 15.4187H73.6769L74.0766 13.4033H65.5132L63.52 22.3937Z" fill="white"/>
<path fill-rule="evenodd" clip-rule="evenodd" d="M53.9468 22.3937H56.9227L57.6259 18.9419H62.8149L63.2445 16.9792H58.0549L58.4084 15.4187H64.0276L64.428 13.4033H55.8647L53.9468 22.3937Z" fill="white"/>
</g>
<path d="M5.9715 0L0 28.0622H79.2186L85.0393 0H5.9715Z" fill="#222221"/>
<path fill-rule="evenodd" clip-rule="evenodd" d="M10.7323 13.4033H13.783L12.2693 20.3009H17.7618L17.3335 22.3937H8.81689L10.7323 13.4033Z" fill="white"/>
<path fill-rule="evenodd" clip-rule="evenodd" d="M20.031 13.4033H29.0259L28.597 15.3687H22.6008L22.2979 16.9798H27.8918L27.4882 18.8672H21.8703L21.5155 20.4783H27.5389L27.1099 22.3937H18.1157L20.031 13.4033Z" fill="white"/>
<mask id="mask1_163_267" style="mask-type:luminance" maskUnits="userSpaceOnUse" x="0" y="0" width="86" height="29">
<path d="M85.0393 0.000488281H0V28.0627H85.0393V0.000488281Z" fill="white"/>
</mask>
<g mask="url(#mask1_163_267)">
<path fill-rule="evenodd" clip-rule="evenodd" d="M34.1442 20.4281H36.6471C38.3739 20.4281 39.0901 19.1159 39.3878 17.9285C39.6867 16.2621 39.0901 15.4289 37.4822 15.4289H35.2186L34.1442 20.4281ZM32.6553 13.4031H39.1486C41.9517 13.4031 43.0852 14.9532 42.4885 17.9285C41.7119 21.44 39.3878 22.3935 36.8251 22.3935H30.686L32.6553 13.4031Z" fill="white"/>
<path fill-rule="evenodd" clip-rule="evenodd" d="M44.3459 13.4031H47.3258L46.193 18.7637C45.8947 20.1915 46.4926 20.6712 47.8613 20.6712C49.2333 20.6712 50.0067 20.1915 50.305 18.7637L51.4378 13.4031H54.4762L53.227 19.2413C52.6883 21.7429 50.6033 22.6944 47.4434 22.6944C44.2276 22.6944 42.5541 21.7429 43.0928 19.2413L44.3459 13.4031Z" fill="white"/>
<path fill-rule="evenodd" clip-rule="evenodd" d="M14.6133 7.68068C14.6731 7.26538 14.315 7.02498 13.8984 7.02498C13.0061 7.02498 12.6486 7.92058 12.6486 8.75768C12.6486 9.35428 12.9437 9.71108 13.4818 9.71108C14.0161 9.71108 14.315 9.53038 14.4951 8.99158H13.7203L13.8984 8.15908H15.687L15.1514 10.5443H14.4352L14.4951 10.0685H14.4352C14.1974 10.426 13.8984 10.6073 13.1828 10.6073C12.4082 10.6073 11.5132 10.1868 11.5132 8.75768C11.5132 8.39888 11.6334 6.06958 13.9576 6.06958C15.0312 6.06958 15.7448 6.60838 15.687 7.68068H14.6133Z" fill="white"/>
<path fill-rule="evenodd" clip-rule="evenodd" d="M21.042 8.09689H21.9376C22.2944 8.09689 22.6539 7.97599 22.6539 7.50159C22.6539 7.14609 22.3543 7.08689 22.0566 7.08689H21.2234L21.042 8.09689ZM20.2674 6.19849H22.4134C23.1881 6.19849 23.7847 6.37459 23.7847 7.32279C23.7847 7.97599 23.4864 8.39389 22.83 8.51159C23.1296 8.62919 23.2472 8.81049 23.2472 9.22319V10.0538C23.2472 10.1721 23.2472 10.4132 23.3057 10.5295H22.1742C22.1742 10.4132 22.1157 10.3534 22.1157 10.2345C22.1157 10.0538 22.1742 9.81849 22.1742 9.52279C22.1742 9.16409 21.9968 8.92879 21.5802 8.92879H20.8646L20.5078 10.5295H19.375L20.2674 6.19849Z" fill="white"/>
<path fill-rule="evenodd" clip-rule="evenodd" d="M29.5576 9.71132C30.3941 9.71132 30.8126 8.69682 30.8126 8.03912C30.8126 7.38272 30.5734 7.02462 29.9768 7.02462C29.0819 7.02462 28.7231 7.98002 28.7231 8.69682C28.7231 9.23362 28.9597 9.71132 29.5576 9.71132ZM29.9768 6.06982C30.7515 6.06982 31.9454 6.36952 31.9454 7.92082C31.9454 9.47212 31.0492 10.6076 29.4991 10.6076C28.2455 10.6076 27.5884 9.88882 27.5884 8.69682C27.5884 7.26502 28.4846 6.06982 29.9768 6.06982Z" fill="white"/>
<path fill-rule="evenodd" clip-rule="evenodd" d="M39.7017 8.63934C39.4612 9.83004 39.1044 10.6073 37.5557 10.6073C36.4235 10.6073 35.8262 10.0685 35.8262 9.35424C35.8262 8.99684 35.8854 8.76024 35.9478 8.46064L36.4235 6.19824H37.5557L37.0176 8.52114C37.0176 8.69724 36.959 8.93634 36.959 9.17814C36.959 9.47454 37.1976 9.71104 37.5557 9.71104C38.3304 9.71104 38.448 9.11644 38.628 8.40284L39.1044 6.19824H40.2372L39.7017 8.63934Z" fill="white"/>
<path fill-rule="evenodd" clip-rule="evenodd" d="M45.1245 8.21649H45.9538C46.4295 8.21649 46.6686 7.91879 46.6686 7.56199C46.6686 7.14609 46.3716 7.14609 46.0141 7.14609H45.3597L45.1245 8.21649ZM44.4082 6.19849H46.5517C47.3232 6.19849 47.7981 6.73209 47.7981 7.50159C47.7981 8.57129 47.0274 9.10489 45.9538 9.10489H44.9437L44.648 10.5295H43.5146L44.4082 6.19849Z" fill="white"/>
<path fill-rule="evenodd" clip-rule="evenodd" d="M52.1589 6.19849H55.5626L55.3598 7.15449H53.0396L52.9148 7.85839H55.0816L54.9055 8.74289H52.7373L52.5606 9.52279H54.9055L54.704 10.5295H51.2529L52.1589 6.19849Z" fill="white"/>
<path fill-rule="evenodd" clip-rule="evenodd" d="M63.52 22.3937H66.5713L67.2745 18.9419H72.4641L72.8924 16.9792H67.7035L68.057 15.4187H73.6769L74.0766 13.4033H65.5132L63.52 22.3937Z" fill="white"/>
<path fill-rule="evenodd" clip-rule="evenodd" d="M53.9468 22.3937H56.9227L57.6259 18.9419H62.8149L63.2445 16.9792H58.0549L58.4084 15.4187H64.0276L64.428 13.4033H55.8647L53.9468 22.3937Z" fill="white"/>
</g>
</svg>
