<svg width="2430" height="785" viewBox="0 0 2430 785" fill="none" xmlns="http://www.w3.org/2000/svg">
<path d="M2397.82 342.314C2389.34 334.843 2382.97 333.767 2377.66 336.97C2371.3 340.174 2368.11 347.644 2368.11 361.522C2368.11 410.625 2339.46 458.652 2282.19 505.616C2224.89 551.516 2144.25 593.136 2040.27 628.375C1933.12 664.677 1808.97 692.419 1668.94 711.641C1519.33 730.836 1360.16 739.383 1192.54 736.192C867.884 729.785 609.008 703.107 416.965 656.143C395.746 650.799 383.01 649.736 378.769 650.799C374.528 651.863 381.959 656.143 402.101 661.461C511.385 695.636 635.518 723.365 773.452 743.663C915.613 764.998 1064.17 776.749 1219.05 779.939C1382.45 783.156 1539.48 775.685 1689.06 758.604C1833.38 742.599 1961.75 716.958 2073.14 683.872C2184.55 650.787 2270.5 611.294 2332.03 566.457C2394.62 520.557 2426.46 471.467 2426.46 419.159C2426.46 401.028 2423.27 385.01 2417.98 371.132C2411.6 358.331 2405.24 348.708 2397.82 342.314Z" stroke="#0094D6" stroke-width="6.93882" stroke-miterlimit="2.613" stroke-linecap="round" stroke-linejoin="round"/>
<path fill-rule="evenodd" clip-rule="evenodd" d="M1653 37.0446C1510.83 15.6964 1362.29 3.95871 1207.39 0.755181C1050.45 -2.40783 893.468 4.36732 737.383 21.0399C592.018 38.1211 464.707 63.7364 352.246 95.7588C241.899 129.908 154.911 168.338 94.4329 213.174C30.7773 260.138 0 309.241 0 361.535C0 378.616 2.12704 394.621 8.4952 409.575C13.7998 422.389 21.2185 432 28.6502 438.407C36.0819 444.814 43.5136 446.941 48.8052 443.725C55.1734 440.534 57.3004 432 57.3004 419.173C57.3004 369.019 85.9377 320.979 144.302 275.079C200.526 228.115 282.235 187.559 385.15 152.333C493.37 114.98 617.503 88.2882 757.551 69.08C907.157 49.8717 1065.23 41.3246 1233.92 44.5281C1558.59 50.9352 1817.45 77.6141 2009.5 124.578C2030.73 128.845 2043.46 130.985 2047.69 129.908C2050.88 128.845 2043.46 124.578 2024.36 118.17C1914.01 85.0716 1790.93 57.3293 1653 37.0446Z" fill="#0094D6"/>
<path fill-rule="evenodd" clip-rule="evenodd" d="M1942.66 256.921C1935.24 251.577 1926.72 249.45 1916.14 249.45C1906.59 249.45 1897.04 251.59 1890.65 256.921C1883.24 263.328 1879.01 269.722 1879.01 278.269C1879.01 285.74 1883.24 293.21 1890.65 298.541C1897.04 303.884 1906.59 307.088 1916.14 307.088C1926.72 307.088 1935.24 303.884 1942.66 298.541C1950.08 293.21 1954.31 285.74 1954.31 278.269C1954.32 269.735 1950.08 263.328 1942.66 256.921ZM259.94 267.595H193.094V487.471H350.119C362.855 487.471 375.578 484.281 387.251 477.874C396.797 472.53 404.229 465.06 407.406 456.526H259.94V267.595ZM1284.85 287.88C1294.4 281.473 1301.83 275.066 1303.95 267.608H1050.37V297.49H1140.56V487.484H1207.41V297.477H1246.67C1260 297.587 1273.15 294.283 1284.85 287.88ZM1697.59 267.595H1630.74V487.471H1787.77C1800.77 487.585 1813.58 484.275 1824.9 477.874C1834.17 473.357 1841.65 465.832 1846.1 456.526H1697.59V267.595ZM593.081 267.595H569.736L414.838 487.471H433.929C459.402 486.408 478.493 477.874 489.103 461.856L505.03 438.368H640.836L655.699 460.793C662.067 470.39 670.55 477.861 683.286 482.128C692.084 485.543 701.423 487.353 710.86 487.471H743.751L593.081 267.595ZM620.668 409.549H524.121L571.863 338.034L620.668 409.549ZM1441.86 267.595H1419.59L1263.63 487.471H1283.8C1309.26 486.408 1327.3 477.874 1338.97 461.856L1353.82 438.368H1489.63L1504.49 460.793C1510.85 470.39 1520.41 477.861 1532.08 482.128C1541.6 485.344 1551.18 487.471 1560.7 487.471H1593.61L1441.86 267.595ZM1470.51 409.549H1372.91L1420.67 338.034L1470.51 409.549ZM779.82 297.477C767.294 307.878 756.851 320.557 749.043 334.843C743.738 347.644 739.497 361.522 739.497 374.336C738.433 410.613 753.284 439.444 782.998 460.806C811.635 482.141 848.78 492.828 893.344 493.891C937.908 494.955 973.977 486.421 1001.56 469.34C1015.35 460.806 1025.96 451.182 1033.39 439.444C1024.91 436.228 1018.54 434.101 1014.29 433.037C992.005 456.526 960.177 467.187 920.918 466.123C883.786 466.123 855.135 455.462 834.98 436.228C816.939 419.16 808.457 397.824 808.457 373.273C809.521 349.784 819.066 330.576 839.234 314.571C861.517 295.363 890.167 286.816 925.172 287.88C950.632 287.88 971.85 293.223 990.955 300.694C999.437 304.961 1010.05 311.368 1019.59 318.838L1035.51 307.101C1020.64 291.096 999.437 278.282 972.901 270.812C953.796 264.404 932.591 261.214 912.423 260.137C856.212 259.061 812.711 271.862 779.82 297.477ZM2057.24 276.129C2030.72 287.867 2017.98 306.024 2017.98 328.436C2017.98 347.644 2027.52 362.598 2045.57 373.273C2057.24 380.743 2077.41 386.074 2104.99 390.341C2137.87 395.671 2158.04 399.951 2164.39 402.078C2182.44 408.485 2191.98 418.083 2191.98 430.91C2191.98 442.635 2184.56 452.245 2168.65 459.716C2154.87 465.06 2136.83 468.276 2114.54 467.187C2091.18 466.123 2071.04 461.869 2054.07 453.335C2037.07 444.801 2027.52 436.241 2024.36 423.44H2003.13C2003.13 440.508 2011.61 455.462 2029.65 468.276C2050.88 483.191 2081.66 491.764 2121.96 493.891C2167.58 496.018 2203.65 488.548 2229.11 472.543C2249.28 459.729 2258.83 444.801 2258.83 426.643C2258.83 405.295 2250.34 389.29 2231.24 377.553C2218.5 370.082 2198.36 363.675 2170.78 358.344L2138.93 353.001C2126.22 350.861 2116.67 348.734 2110.28 347.67C2092.24 342.327 2083.76 333.793 2083.76 322.042C2084.82 310.304 2091.18 301.77 2104.99 295.363C2118.77 290.02 2137.87 286.829 2161.23 287.893C2194.11 288.969 2219.57 297.503 2238.67 313.508L2251.41 299.643C2241.86 290.033 2229.11 281.499 2212.15 274.015C2193.04 266.544 2170.79 262.277 2146.37 261.214C2111.35 259.061 2081.66 264.391 2057.24 276.129ZM1949.02 317.762H1883.24V487.471H1949.02V317.762ZM719.342 146.989C719.342 137.379 722.533 128.844 727.837 122.424C730.629 119.663 733.943 117.485 737.587 116.02C741.23 114.555 745.129 113.831 749.056 113.89C754.36 113.89 758.601 114.967 762.843 117.094C764.97 119.234 768.147 122.424 770.274 125.628L774.515 123.501C773.452 118.157 770.274 114.954 768.147 111.75C762.843 105.343 754.36 102.14 743.751 102.14C733.142 102.14 724.647 106.407 716.164 112.814C706.619 121.348 701.314 133.086 701.314 148.04C701.314 161.917 705.555 172.591 714.037 181.126C721.469 189.673 732.078 193.94 743.751 193.94C754.36 193.94 764.97 190.736 777.706 185.406V146.989H745.878V158.727H761.805V178.999C757.092 180.98 752.052 182.07 746.942 182.215C738.446 182.215 731.015 178.999 725.723 170.464C721.469 164.057 719.342 155.523 719.342 146.989ZM962.318 140.582C964.432 137.379 965.495 133.112 965.495 127.781C965.495 119.234 962.318 112.84 957.013 109.636C952.772 106.433 946.404 104.306 937.908 104.306H909.258V190.762H925.185V152.333L934.731 153.396L955.949 190.762H973.99L951.708 150.206C955.949 148.053 960.19 144.849 962.318 140.582ZM925.172 117.094H932.591L943.2 119.234C946.378 121.374 948.505 124.577 948.505 130.971C948.505 137.366 945.327 141.646 938.959 144.849L925.172 146.989V117.094ZM1176.63 148.053C1176.63 136.315 1173.44 125.628 1168.15 118.157C1160.72 107.483 1150.11 102.153 1135.26 102.153C1121.46 102.153 1110.85 107.483 1104.48 117.094C1099.17 125.628 1096 136.302 1096 149.116C1096 160.854 1099.17 170.464 1104.48 178.999C1110.85 188.609 1121.46 193.94 1135.26 193.94C1150.11 193.94 1160.72 188.596 1168.15 177.935C1173.79 168.996 1176.73 158.622 1176.63 148.053ZM1119.34 122.424C1123.58 117.094 1128.89 113.89 1136.32 113.89C1151.17 113.89 1158.6 124.564 1158.6 148.053C1158.6 170.464 1151.17 182.215 1136.32 182.215C1121.46 182.215 1114.04 170.464 1114.04 145.913C1114.02 136.315 1115.09 128.831 1119.34 122.424ZM1372.9 104.293H1355.92V172.604C1350.63 179.011 1344.25 182.215 1337.88 182.215C1331.51 182.215 1326.21 178.998 1324.08 172.604C1322.78 168.458 1322.07 164.148 1321.98 159.803V104.306H1305V158.74C1305 171.554 1307.11 181.152 1312.42 186.495C1317.72 190.762 1324.07 193.966 1332.59 193.966C1337.88 193.966 1343.17 191.826 1347.44 189.699L1355.92 181.151V190.762H1372.9V104.293ZM1555.4 146.989C1561.75 141.646 1564.94 135.239 1564.94 127.781C1564.94 121.374 1563.88 117.107 1559.65 112.84C1555.4 107.496 1547.98 104.306 1538.42 104.306H1507.64V190.762H1524.62V152.333L1533.13 153.396C1542.65 153.383 1550.11 151.256 1555.4 146.989ZM1547.98 130.971C1547.98 137.378 1544.79 141.646 1538.43 144.849C1533.97 146.246 1529.32 146.968 1524.63 146.989V116.03L1539.5 118.17C1544.78 119.234 1547.98 124.564 1547.98 130.971ZM1741.07 104.293H1690.13V190.749H1746.37V178.999H1707.13V152.32H1736.82V140.582H1707.13V116.03H1741.07V104.293Z" fill="white"/>
</svg>
