<svg width="500" height="500" viewBox="0 0 500 500" fill="none" xmlns="http://www.w3.org/2000/svg">
  <path d="M170 120C170 120 140 130 120 150C100 170 90 200 80 230C70 260 60 290 70 320C80 350 110 370 140 380C170 390 200 390 230 380C260 370 290 350 310 320C330 290 340 260 350 230C360 200 370 170 360 140C350 110 330 90 300 80C270 70 240 70 210 80C180 90 160 110 150 140C140 170 140 200 150 230C160 260 180 280 210 290C240 300 270 300 300 290C330 280 350 260 360 230" stroke="#F2F2F2" stroke-width="8" stroke-linecap="round" stroke-linejoin="round"/>
</svg> 