<?xml version="1.0" encoding="UTF-8"?>
<svg width="600" height="400" viewBox="0 0 600 400" fill="none" xmlns="http://www.w3.org/2000/svg">
  <!-- Arbres stylisés -->
  <path d="M400 300 C450 200 500 250 520 300" stroke="#4CAF50" fill="#E8F5E9" stroke-width="20"/>
  <path d="M350 320 C400 220 450 270 470 320" stroke="#2E7D32" fill="#C8E6C9" stroke-width="20"/>
  
  <!-- Personne assise -->
  <g transform="translate(380 200)">
    <!-- Corps -->
    <path d="M0 0 C10 20 30 40 20 60" stroke="#455A64" fill="none" stroke-width="8"/>
    <!-- Tête -->
    <circle cx="0" cy="0" r="15" fill="#455A64"/>
    <!-- Jambes -->
    <path d="M20 60 C30 80 40 90 60 100" stroke="#455A64" fill="none" stroke-width="8"/>
    <path d="M20 60 C10 80 0 90 -20 100" stroke="#455A64" fill="none" stroke-width="8"/>
  </g>

  <!-- Éléments décoratifs "R" -->
  <g transform="translate(520 280)">
    <circle cx="0" cy="0" r="20" fill="#3F51B5" opacity="0.8"/>
    <text x="-8" y="8" fill="white" font-family="Arial" font-size="24" font-weight="bold">R</text>
  </g>
  <g transform="translate(450 350)">
    <circle cx="0" cy="0" r="20" fill="#3F51B5" opacity="0.8"/>
    <text x="-8" y="8" fill="white" font-family="Arial" font-size="24" font-weight="bold">R</text>
  </g>
</svg> 