<svg width="68" height="76" viewBox="0 0 68 76" fill="none" xmlns="http://www.w3.org/2000/svg">
<path fill-rule="evenodd" clip-rule="evenodd" d="M55.6925 16.571C58.5324 16.6671 60.9824 17.4532 62.9743 18.8525C66.0726 21.029 67.6165 24.3799 67.9358 27.6938C68.2523 30.9801 67.396 34.4479 65.4329 37.1549C63.4219 39.928 60.2387 41.8899 56.1791 41.8899H12.7238L12.4595 41.8417C7.65879 40.9671 4.19628 38.9575 2.12568 36.0774C0.056658 33.1996 -0.332083 29.8537 0.237672 26.8996C0.799958 23.9842 2.3225 21.2609 4.38238 19.385C5.45458 18.4086 6.77774 17.5814 8.25254 17.149C8.2718 15.3779 8.75739 13.7194 9.61835 12.2523C11.0332 9.84123 13.3383 8.14136 15.784 7.16976C19.1753 5.82249 23.6749 5.64512 27.1703 7.74614C29.158 4.50948 31.7806 2.30582 34.7479 1.09427C38.7391 -0.535298 43.0259 -0.234799 46.6257 1.26997C50.2072 2.76711 53.3305 5.54981 54.8895 9.18848C55.8662 11.468 56.1851 13.9893 55.6925 16.571ZM36.9965 6.63707C34.7135 7.56919 32.3856 9.66957 30.8518 13.7928L28.7064 19.5599L25.5113 14.3047C24.2636 12.2525 21.1717 11.4657 17.9801 12.7337C16.4901 13.3256 15.3621 14.2599 14.7587 15.2883C14.2061 16.2299 13.9801 17.4221 14.544 18.9878L16.5367 24.5212L10.9056 22.8774C10.3599 22.7181 9.47757 22.827 8.39162 23.8159C7.31947 24.7923 6.42023 26.3451 6.09403 28.0364C5.77531 29.689 6.03139 31.2802 6.96354 32.5767C7.87269 33.8413 9.70237 35.2086 13.2702 35.9056H56.1791C58.1455 35.9056 59.6074 35.016 60.6094 33.6343C61.6594 32.1865 62.184 30.1963 61.9984 28.2694C61.8155 26.3702 60.9742 24.7529 59.5528 23.7545C58.1487 22.7681 55.7308 22.0746 51.7874 22.9295L44.9083 24.4209L48.6246 18.4249C50.2579 15.7898 50.2219 13.4481 49.4094 11.5517C48.5502 9.54661 46.701 7.78438 44.3315 6.79389C41.9803 5.81104 39.3376 5.68122 36.9965 6.63707Z" fill="white"/>
<path fill-rule="evenodd" clip-rule="evenodd" d="M36.9823 44.8819V76H31.0173V44.8819H36.9823Z" fill="white"/>
<path fill-rule="evenodd" clip-rule="evenodd" d="M39.9648 44.8819H45.5321V57.8419C45.5321 60.863 46.5843 63.7897 48.5079 66.1193L56.6668 76H50.2643L42.9157 67.0456C41.0077 64.7206 39.9648 61.8061 39.9648 58.7985V44.8819Z" fill="white"/>
<path fill-rule="evenodd" clip-rule="evenodd" d="M28.0348 44.8819H22.4675V57.8419C22.4675 60.863 21.4153 63.7897 19.4918 66.1193L11.3329 76H17.7353L25.084 67.0456C26.992 64.7206 28.0348 61.8061 28.0348 58.7985V44.8819Z" fill="white"/>
</svg>
