<svg width="34" height="38" viewBox="0 0 34 38" fill="none" xmlns="http://www.w3.org/2000/svg">
<path fill-rule="evenodd" clip-rule="evenodd" d="M27.8463 8.28548C29.2662 8.33357 30.4912 8.72658 31.4872 9.42626C33.0363 10.5145 33.8083 12.19 33.9679 13.8469C34.1262 15.4901 33.698 17.224 32.7165 18.5775C31.711 19.964 30.1194 20.9449 28.0896 20.9449H6.36189L6.22973 20.9209C3.8294 20.4835 2.09814 19.4787 1.06284 18.0387C0.028329 16.5998 -0.166042 14.9268 0.118836 13.4498C0.399979 11.9921 1.16125 10.6304 2.19119 9.69249C2.72729 9.20428 3.38887 8.79072 4.12627 8.57451C4.1359 7.68894 4.37869 6.85968 4.80917 6.12613C5.51661 4.92061 6.66914 4.07068 7.89198 3.58488C9.58764 2.91124 11.8374 2.82256 13.5851 3.87307C14.579 2.25474 15.8903 1.15291 17.374 0.547133C19.3696 -0.267649 21.513 -0.117399 23.3129 0.634987C25.1036 1.38355 26.6652 2.7749 27.4448 4.59424C27.9331 5.734 28.0926 6.99467 27.8463 8.28548ZM18.4982 3.31854C17.3567 3.7846 16.1928 4.83479 15.4259 6.8964L14.3532 9.77995L12.7557 7.15235C12.1318 6.12626 10.5859 5.73286 8.99007 6.36683C8.24505 6.6628 7.68107 7.12996 7.37933 7.64415C7.10303 8.11497 6.99007 8.71104 7.27199 9.49389L8.26832 12.2606L5.45282 11.4387C5.17994 11.3591 4.73879 11.4135 4.19581 11.908C3.65973 12.3962 3.21011 13.1726 3.04702 14.0182C2.88766 14.8445 3.0157 15.6401 3.48177 16.2884C3.93635 16.9206 4.85118 17.6043 6.6351 17.9528H28.0896C29.0728 17.9528 29.8037 17.508 30.3047 16.8172C30.8297 16.0932 31.092 15.0981 30.9992 14.1347C30.9077 13.1851 30.4871 12.3765 29.7764 11.8772C29.0744 11.384 27.8654 11.0373 25.8937 11.4648L22.4542 12.2104L24.3123 9.21246C25.1289 7.89489 25.1109 6.72404 24.7047 5.77587C24.2751 4.7733 23.3505 3.89219 22.1657 3.39694C20.9901 2.90552 19.6688 2.84061 18.4982 3.31854Z" fill="url(#paint0_linear_103_1627)"/>
<path fill-rule="evenodd" clip-rule="evenodd" d="M18.4912 22.4409V38H15.5087V22.4409H18.4912Z" fill="url(#paint1_linear_103_1627)"/>
<path fill-rule="evenodd" clip-rule="evenodd" d="M19.9824 22.4409H22.7661V29.1007C22.7661 30.495 23.2517 31.8459 24.1395 32.921L28.3334 38H25.1322L21.3443 33.3845C20.4637 32.3114 19.9824 30.9663 19.9824 29.5781V22.4409Z" fill="url(#paint2_linear_103_1627)"/>
<path fill-rule="evenodd" clip-rule="evenodd" d="M14.0174 22.4409H11.2338V29.1007C11.2338 30.495 10.7481 31.8459 9.86033 32.921L5.66644 38H8.86765L12.6555 33.3845C13.5361 32.3114 14.0174 30.9663 14.0174 29.5781V22.4409Z" fill="url(#paint3_linear_103_1627)"/>
<defs>
<linearGradient id="paint0_linear_103_1627" x1="17" y1="0" x2="17" y2="38" gradientUnits="userSpaceOnUse">
<stop stop-color="#ACCEFF"/>
<stop offset="0.500961" stop-color="#579BFF"/>
<stop offset="1" stop-color="#0269FF"/>
</linearGradient>
<linearGradient id="paint1_linear_103_1627" x1="17" y1="0" x2="17" y2="38" gradientUnits="userSpaceOnUse">
<stop stop-color="#ACCEFF"/>
<stop offset="0.500961" stop-color="#579BFF"/>
<stop offset="1" stop-color="#0269FF"/>
</linearGradient>
<linearGradient id="paint2_linear_103_1627" x1="17" y1="0" x2="17" y2="38" gradientUnits="userSpaceOnUse">
<stop stop-color="#ACCEFF"/>
<stop offset="0.500961" stop-color="#579BFF"/>
<stop offset="1" stop-color="#0269FF"/>
</linearGradient>
<linearGradient id="paint3_linear_103_1627" x1="17" y1="0" x2="17" y2="38" gradientUnits="userSpaceOnUse">
<stop stop-color="#ACCEFF"/>
<stop offset="0.500961" stop-color="#579BFF"/>
<stop offset="1" stop-color="#0269FF"/>
</linearGradient>
</defs>
</svg>
