<svg width="300" height="300" viewBox="0 0 300 300" xmlns="http://www.w3.org/2000/svg">
  <!-- Contour du Maroc plus réaliste -->
  <path d="M50,120 L65,95 L85,80 L110,70 L130,65 L150,65 L170,70 L185,80 L200,90 L215,105 L225,120 
    L230,135 L240,150 L245,165 L240,180 L235,195 L220,210 L205,220 L190,225 L175,230 L160,235 L145,240
    L130,240 L115,235 L100,225 L85,210 L75,190 L70,170 L65,150 L60,135 L50,120 Z" 
    fill="#F8F8F8" 
    stroke="#DDDDDD" 
    stroke-width="2"
    stroke-linecap="round"
    stroke-linejoin="round" />

  <!-- Cities in Morocco -->
  <!-- Rabat -->
  <circle id="rabat" cx="100" cy="160" r="5" fill="#4CAF50" opacity="0" />
  
  <!-- Casablanca -->
  <circle id="casablanca" cx="90" cy="170" r="5" fill="#4CAF50" opacity="0" />
  
  <!-- Titre du pays (masqué par défaut) -->
  <text x="150" y="70" font-family="Arial" font-size="14" fill="#333333" text-anchor="middle" opacity="0">Maroc</text>
</svg> 