<svg xmlns="http://www.w3.org/2000/svg" viewBox="0 0 800 200">
  <!-- Parteam -->
  <g transform="translate(40, 80)">
    <circle cx="30" cy="20" r="25" fill="#eeeeee" stroke="#626262" stroke-width="1.5"/>
    <path d="M20 5 L20 35 M30 5 L30 35 M40 5 L40 35 M15 20 L45 20" stroke="#626262" stroke-width="2"/>
    <text x="70" y="25" font-family="Arial" font-size="16" font-weight="bold" fill="#626262">parteam</text>
  </g>
  
  <!-- Bevoak -->
  <g transform="translate(220, 80)">
    <rect x="10" y="0" width="50" height="35" fill="#f5f5f5" stroke="#888888" stroke-width="1.5"/>
    <path d="M30 0 L30 35" stroke="#888888" stroke-width="1.5"/>
    <text x="70" y="25" font-family="Arial" font-size="16" font-weight="bold" fill="#888888">Bevoak</text>
  </g>
  
  <!-- Blocnet -->
  <g transform="translate(370, 80)">
    <circle cx="30" cy="20" r="20" fill="none" stroke="#333333" stroke-width="1.5"/>
    <ellipse cx="30" cy="20" rx="30" ry="12" fill="none" stroke="#333333" stroke-width="1" transform="rotate(45 30 20)"/>
    <ellipse cx="30" cy="20" rx="30" ry="12" fill="none" stroke="#333333" stroke-width="1" transform="rotate(-45 30 20)"/>
    <text x="30" y="25" font-family="Arial" font-size="14" font-weight="bold" text-anchor="middle" fill="#333333">B</text>
    <text x="70" y="25" font-family="Arial" font-size="16" font-weight="bold" fill="#333333">locnet</text>
  </g>
  
  <!-- Polynom -->
  <g transform="translate(520, 80)">
    <polygon points="30,5 45,20 30,35 15,20" fill="none" stroke="#333333" stroke-width="1.5"/>
    <polygon points="30,0 50,20 30,40 10,20" fill="none" stroke="#333333" stroke-width="1"/>
    <text x="60" y="25" font-family="Arial" font-size="14" font-weight="bold" fill="#333333">POLYNOM</text>
  </g>
  
  <!-- Colibee -->
  <g transform="translate(40, 140)">
    <path d="M10,20 Q20,5 30,20 T50,20" fill="none" stroke="#666666" stroke-width="1.5"/>
    <text x="60" y="20" font-family="Arial" font-size="14" font-weight="bold" fill="#666666">colibee</text>
    <text x="60" y="32" font-family="Arial" font-size="7" fill="#888888">L'essence du conseil</text>
  </g>
  
  <!-- IBM -->
  <g transform="translate(650, 80)">
    <path d="M10,10 H50 M10,20 H50 M10,30 H50" stroke="#0f62fe" stroke-width="4"/>
    <rect x="25" y="10" width="8" height="20" fill="#0f62fe"/>
  </g>
</svg> 